<svg xmlns="http://www.w3.org/2000/svg" viewBox="0 0 692.91 135.46">
  <defs>
    <style>
      .cls-1 {
        fill: #fff;
      }
    </style>
  </defs>
  <g id="Layer_2" data-name="Layer 2">
    <g id="Layer_1-2" data-name="Layer 1">
      <g id="logo-horizontal-white">
        <g id="letters">
          <path class="cls-1" d="M222.21,36.12a24.69,24.69,0,0,1,9,8.65V7.44h20.75V113.11H232.05V102.27a28.94,28.94,0,0,1-10,10.12q-5.61,3.17-13.93,3.16-13.71,0-23.08-11.09T175.69,76q0-20,9.23-31.51T209.58,33A25.27,25.27,0,0,1,222.21,36.12Zm5,55.74q4.51-6.47,4.52-16.73,0-14.35-7.25-20.53a15.61,15.61,0,0,0-10.34-3.73q-9,0-13.17,6.78t-4.2,16.84q0,10.83,4.27,17.33t13,6.5Q222.71,98.32,227.24,91.86Z"/>
          <path class="cls-1" d="M294.9,65.51a31.92,31.92,0,0,0,8.17-1.79q4.41-1.86,4.41-5.82c0-3.2-1.13-5.42-3.38-6.64s-5.57-1.83-9.94-1.83q-7.35,0-10.4,3.59a14.74,14.74,0,0,0-2.91,7.18H261.11q.64-10.26,5.76-16.87Q275,33,294.85,33a49.83,49.83,0,0,1,22.92,5.09q10,5.1,10,19.24V93.22c0,2.49,0,5.51.14,9q.21,4,1.22,5.45a7.28,7.28,0,0,0,3,2.37v3H309.92a22.94,22.94,0,0,1-1.29-4.45c-.24-1.39-.43-3-.58-4.74a42.13,42.13,0,0,1-9.82,7.82,29.6,29.6,0,0,1-15,3.81q-10.7,0-17.66-6.07t-7-17.19q0-14.43,11.21-20.89,6.15-3.51,18.08-5Zm12.51,9.55a23,23,0,0,1-4,2,34.55,34.55,0,0,1-5.49,1.4l-4.66.86q-6.56,1.14-9.4,2.8a9.32,9.32,0,0,0-4.84,8.68c0,3.5,1,6,3,7.58a11.22,11.22,0,0,0,7.17,2.33,21.35,21.35,0,0,0,12.36-3.88q5.65-3.87,5.87-14.14Z"/>
          <path class="cls-1" d="M354.92,88.13c.43,3.63,1.37,6.22,2.81,7.75q3.82,4.09,14.14,4.09a21.73,21.73,0,0,0,9.63-1.79,5.75,5.75,0,0,0,3.57-5.39,5.81,5.81,0,0,0-2.88-5.24q-2.87-1.78-21.4-6.17-13.34-3.3-18.79-8.26t-5.46-14.07q0-10.83,8.53-18.63t24-7.78q14.67,0,23.92,5.85t10.61,20.2H383.13a12.08,12.08,0,0,0-2.23-6.24q-3.39-4.17-11.52-4.16-6.69,0-9.54,2.08A6,6,0,0,0,357,55.25a5.36,5.36,0,0,0,3,5.1Q363,62,381.39,66q12.23,2.87,18.32,8.68a19.73,19.73,0,0,1,6,14.72,23.79,23.79,0,0,1-8.66,19q-8.67,7.35-26.8,7.35-18.48,0-27.29-7.78a25.32,25.32,0,0,1-8.82-19.85Z"/>
          <path class="cls-1" d="M470.44,35.29A22.94,22.94,0,0,1,480.12,43a20.39,20.39,0,0,1,3.93,9,110.77,110.77,0,0,1,.72,15.12v46H463.88V65.46a21.11,21.11,0,0,0-2.14-10.2q-2.78-5.48-10.55-5.47-8,0-12.22,5.43t-4.16,15.49v42.4H414.35V7.65h20.46V45q4.43-6.81,10.25-9.51a28.94,28.94,0,0,1,12.26-2.69A33.25,33.25,0,0,1,470.44,35.29Z"/>
          <path class="cls-1" d="M545.6,34.86h22l-28.25,78.25H517.73L489.67,34.86h23l16.29,57.72Z"/>
          <path class="cls-1" d="M603.53,65.51a31.92,31.92,0,0,0,8.17-1.79q4.41-1.86,4.41-5.82c0-3.2-1.13-5.42-3.38-6.64s-5.57-1.83-9.93-1.83q-7.35,0-10.41,3.59a14.83,14.83,0,0,0-2.91,7.18H569.74q.64-10.26,5.77-16.87Q583.66,33,603.48,33a49.87,49.87,0,0,1,22.93,5.09q10,5.1,10,19.24V93.22q0,3.73.14,9c.15,2.68.55,4.5,1.22,5.45a7.31,7.31,0,0,0,3,2.37v3H618.55a22.94,22.94,0,0,1-1.29-4.45q-.36-2.09-.57-4.74a42.34,42.34,0,0,1-9.82,7.82,29.66,29.66,0,0,1-15,3.81q-10.7,0-17.66-6.07t-7-17.19q0-14.43,11.21-20.89,6.13-3.51,18.08-5ZM616,75.06a22.61,22.61,0,0,1-4,2,34.55,34.55,0,0,1-5.49,1.4l-4.66.86q-6.54,1.14-9.4,2.8a9.33,9.33,0,0,0-4.83,8.68c0,3.5,1,6,2.95,7.58a11.25,11.25,0,0,0,7.18,2.33,21.32,21.32,0,0,0,12.35-3.88q5.66-3.87,5.87-14.14Z"/>
          <path class="cls-1" d="M691.15,33c.27,0,.85.06,1.76.11v21c-1.29-.14-2.44-.24-3.44-.29s-1.82-.07-2.44-.07q-12.36,0-16.59,8-2.37,4.53-2.37,13.93v37.4h-20.6V34.86H667V48.5q4.74-7.81,8.25-10.7Q681,33,690.18,33C690.57,33,690.89,33,691.15,33Z"/>
        </g>
        <path id="icon" class="cls-1" d="M67.73,0a67.73,67.73,0,1,0,67.73,67.73A67.73,67.73,0,0,0,67.73,0ZM63.22,77.55H22.58V57.89H63.22Zm49.66,0H72.24V57.89h40.64Z"/>
      </g>
    </g>
  </g>
</svg>
